# xmcd
#
# Track frame offsets:
# 150
# 17603
# 35529
# 52231
# 69238
# 86535
# 104431
# 122388
# 139182
# 157905
# 175110
# 191639
# 208155
# 225738
#
# Disc length: 3244 seconds
#
#
# Revision: 0
# Processed by: cddbd v1.5.1PL0 Copyright (c) Steve Scherf et al.
# Submitted via: FreeRIP 2.931 
#
DISCID=b90caa0e
DTITLE=Lothar Weidich - The Devil Went Down To Georgia
DYEAR=1900
DGENRE=Square Dance
TTITLE0=The Naughta Lady Of Shady Lane
TTITLE1=Ooga Ooga Mooshka
TTITLE2=Fairweather Sweetheart
TTITLE3=Somewhere Over The Rainbow
TTITLE4=Waltz Across Texas
TTITLE5=Cold Cold Heart
TTITLE6=Now Is The Hour
TTITLE7=There's Is A Kind Of Hush
TTITLE8=You're My Best Friend
TTITLE9=Rhythm Of The Rain
TTITLE10=Rocky Top
TTITLE11=The Shiek Of Chicago
TTITLE12=Ring Around Your Neck
TTITLE13=The Devil Went Down To Georgia
EXTD=Singing Calls\n1-7 Basic\n8-14 Mainstream
EXTT0=
EXTT1=
EXTT2=
EXTT3=
EXTT4=
EXTT5=
EXTT6=
EXTT7=
EXTT8=
EXTT9=
EXTT10=
EXTT11=
EXTT12=
EXTT13=
PLAYORDER=
